<?xml version="1.0" standalone="no"?>
<!DOCTYPE svg PUBLIC "-//W3C//DTD SVG 20010904//EN"
 "http://www.w3.org/TR/2001/REC-SVG-20010904/DTD/svg10.dtd">
<svg version="1.0" xmlns="http://www.w3.org/2000/svg"
 width="512.000000pt" height="512.000000pt" viewBox="0 0 512.000000 512.000000"
 preserveAspectRatio="xMidYMid meet">

<g transform="translate(0.000000,512.000000) scale(0.100000,-0.100000)"
fill="#000000" stroke="none">
<path d="M2315 5109 c-645 -67 -1214 -355 -1655 -837 -704 -770 -860 -1914
-391 -2852 131 -262 265 -445 485 -665 233 -233 416 -363 700 -501 244 -118
501 -195 791 -236 118 -17 511 -16 635 0 579 80 1097 337 1491 739 130 132
157 163 243 277 256 341 423 757 488 1211 17 118 17 512 0 630 -58 404 -200
787 -410 1100 -412 614 -1042 1012 -1777 1121 -123 18 -478 26 -600 13z m480
-429 c725 -81 1360 -529 1681 -1185 315 -644 282 -1421 -86 -2031 -177 -292
-442 -557 -734 -734 -528 -318 -1188 -389 -1781 -189 -311 105 -582 274 -821
513 -182 183 -300 348 -410 571 -244 499 -282 1073 -108 1604 151 460 458 856
879 1130 239 157 570 276 870 316 123 16 388 18 510 5z"/>
<path d="M2505 3861 c-16 -7 -543 -538 -1259 -1269 l-101 -102 0 -60 c0 -51 4
-62 29 -89 49 -51 121 -60 176 -21 14 10 272 270 575 578 302 309 560 566 573
571 32 15 88 14 120 -3 15 -8 277 -269 582 -580 305 -311 569 -573 586 -581
40 -19 65 -19 107 -1 73 31 108 117 74 183 -21 40 -1324 1362 -1354 1374 -29
11 -81 11 -108 0z"/>
<path d="M2535 3271 c-11 -5 -237 -229 -502 -499 l-483 -490 0 -499 c0 -472 1
-501 18 -516 17 -15 56 -17 353 -17 274 0 339 3 355 14 18 14 19 32 24 310 5
266 7 297 23 313 16 16 40 18 237 18 197 0 221 -2 237 -18 16 -16 18 -47 23
-313 5 -278 6 -296 24 -310 16 -11 82 -14 356 -14 314 0 338 1 353 18 15 17
17 67 17 517 l0 499 -482 485 c-266 267 -492 491 -503 498 -23 14 -24 14 -50
4z"/>
</g>
</svg>
