<?xml version="1.0" standalone="no"?>
<!DOCTYPE svg PUBLIC "-//W3C//DTD SVG 20010904//EN"
 "http://www.w3.org/TR/2001/REC-SVG-20010904/DTD/svg10.dtd">
<svg version="1.0" xmlns="http://www.w3.org/2000/svg"
 width="512.000000pt" height="512.000000pt" viewBox="0 0 512.000000 512.000000"
 preserveAspectRatio="xMidYMid meet">

<g transform="translate(0.000000,512.000000) scale(0.100000,-0.100000)"
fill="#000000" stroke="none">
<path d="M660 4945 c-178 -39 -348 -172 -429 -335 -69 -142 -72 -168 -69 -690
3 -445 4 -459 24 -486 39 -53 71 -69 134 -69 63 0 95 16 134 69 20 27 21 42
26 499 l5 472 25 50 c31 64 91 124 155 155 l50 25 552 5 c537 5 552 6 579 26
53 39 69 71 69 134 0 63 -16 95 -69 134 -27 21 -39 21 -574 23 -438 1 -560 -1
-612 -12z"/>
<path d="M3455 4946 c-118 -51 -124 -224 -11 -289 15 -9 146 -13 491 -17 463
-5 471 -5 515 -28 72 -35 114 -75 151 -144 l34 -63 5 -472 c5 -457 6 -472 26
-499 39 -53 71 -69 134 -69 63 0 95 16 134 69 20 27 21 41 24 486 3 523 0 550
-70 690 -84 167 -252 297 -433 335 -97 20 -954 21 -1000 1z"/>
<path d="M2398 4305 c-347 -66 -617 -319 -709 -666 -27 -99 -32 -296 -10 -394
62 -277 237 -504 486 -628 268 -134 590 -122 850 31 107 63 254 210 317 317
302 513 29 1176 -547 1325 -105 28 -283 35 -387 15z m283 -319 c163 -35 324
-160 394 -307 61 -130 77 -245 50 -374 -43 -207 -204 -380 -410 -441 -80 -24
-229 -24 -310 0 -204 60 -367 235 -410 441 -19 88 -18 142 0 230 36 169 147
317 296 395 128 66 254 84 390 56z"/>
<path d="M1752 2334 c-413 -69 -766 -374 -895 -774 -44 -138 -52 -202 -52
-437 0 -244 1 -246 69 -297 27 -21 29 -21 1677 -24 1638 -2 1650 -2 1689 18
71 36 80 69 80 282 0 255 -20 373 -87 538 -59 143 -127 247 -241 364 -175 179
-388 291 -632 331 -133 21 -1480 21 -1608 -1z m1633 -328 c253 -75 459 -257
551 -484 40 -99 55 -173 61 -289 l6 -113 -1443 0 -1443 0 6 113 c6 129 26 212
73 315 60 132 167 259 287 341 92 63 234 118 342 134 17 2 361 4 765 3 674 -2
740 -4 795 -20z"/>
<path d="M4740 1909 c-29 -12 -67 -46 -83 -74 -9 -14 -13 -180 -17 -570 l-5
-550 -34 -63 c-38 -70 -69 -100 -145 -140 l-51 -27 -472 -5 c-457 -5 -472 -6
-499 -26 -53 -39 -69 -71 -69 -134 0 -63 16 -95 69 -134 27 -20 41 -21 486
-24 523 -3 550 0 690 70 118 59 219 160 278 278 71 143 73 158 70 770 -3 526
-3 539 -24 566 -11 15 -32 37 -46 47 -31 23 -111 32 -148 16z"/>
<path d="M255 1746 c-37 -17 -70 -52 -84 -89 -18 -47 -14 -905 4 -992 38 -181
168 -349 335 -433 140 -70 167 -73 690 -70 445 3 459 4 486 24 53 39 69 71 69
134 0 63 -16 95 -69 134 -27 20 -42 21 -499 26 l-472 5 -63 34 c-69 37 -109
79 -144 151 -23 44 -23 52 -28 517 -5 457 -6 472 -26 499 -11 15 -32 37 -46
47 -34 25 -113 32 -153 13z"/>
</g>
</svg>
