<?xml version="1.0" standalone="no"?>
<!DOCTYPE svg PUBLIC "-//W3C//DTD SVG 20010904//EN"
 "http://www.w3.org/TR/2001/REC-SVG-20010904/DTD/svg10.dtd">
<svg version="1.0" xmlns="http://www.w3.org/2000/svg"
 width="512.000000pt" height="512.000000pt" viewBox="0 0 512.000000 512.000000"
 preserveAspectRatio="xMidYMid meet">

<g transform="translate(0.000000,512.000000) scale(0.100000,-0.100000)"
fill="#000000" stroke="none">
<path d="M2375 4900 c-584 -52 -1098 -295 -1501 -713 -668 -689 -846 -1701
-454 -2587 227 -514 666 -953 1180 -1180 791 -350 1686 -248 2379 272 182 137
399 367 529 560 453 677 523 1534 187 2279 -241 536 -709 985 -1253 1203 -334
134 -729 196 -1067 166z m490 -444 c202 -36 347 -83 524 -167 400 -191 708
-500 901 -901 458 -955 56 -2096 -900 -2557 -526 -254 -1129 -254 -1659 0
-400 192 -709 501 -901 901 -84 176 -129 318 -167 528 -24 133 -24 467 0 600
38 210 83 352 167 528 287 600 847 998 1520 1081 107 14 408 6 515 -13z"/>
<path d="M2464 4040 c-50 -16 -125 -71 -161 -118 -95 -125 -78 -309 38 -417
134 -126 323 -121 451 12 59 60 83 124 83 218 0 67 -4 89 -28 137 -31 62 -84
116 -149 149 -48 25 -180 36 -234 19z"/>
<path d="M2485 3191 c-92 -24 -173 -90 -215 -176 l-25 -50 0 -830 0 -830 28
-57 c30 -62 83 -115 149 -150 36 -19 58 -23 138 -23 80 0 102 4 138 23 66 35
119 88 149 150 l28 57 0 830 0 830 -34 63 c-57 105 -144 160 -260 167 -36 2
-79 1 -96 -4z"/>
</g>
</svg>
